<?xml version="1.0" standalone="no"?>
<!DOCTYPE svg PUBLIC "-//W3C//DTD SVG 20010904//EN"
 "http://www.w3.org/TR/2001/REC-SVG-20010904/DTD/svg10.dtd">
<svg version="1.0" xmlns="http://www.w3.org/2000/svg"
 width="1447.000000pt" height="1084.000000pt" viewBox="0 0 1447.000000 1084.000000"
 preserveAspectRatio="xMidYMid meet">

<g transform="translate(0.000000,1084.000000) scale(0.100000,-0.100000)"
fill="#000000" stroke="none">
<path d="M4263 10780 c-48 -33 -1019 -700 -2158 -1483 -1716 -1179 -2073
-1429 -2087 -1457 -17 -33 -18 -121 -18 -1423 0 -1173 2 -1392 14 -1415 12
-23 829 -432 5018 -2511 2751 -1366 5017 -2485 5034 -2488 28 -5 254 144 2187
1433 2064 1375 2158 1439 2166 1473 5 20 16 542 25 1161 9 619 19 1251 23
1405 l6 280 -28 33 c-15 18 -55 46 -89 61 -34 15 -2287 1145 -5008 2509 -2720
1365 -4957 2482 -4971 2482 -14 0 -64 -26 -114 -60z m505 -335 c1 -1 -76 0
-172 3 -185 5 -334 -7 -475 -37 -45 -10 -78 -14 -74 -10 4 4 82 59 173 122
l165 114 190 -95 c105 -52 191 -95 193 -97z m-88 -189 c338 -18 671 -168 766
-347 25 -46 25 -152 0 -198 -74 -139 -309 -272 -567 -321 -184 -35 -449 -42
-616 -15 -301 48 -551 169 -638 309 -27 44 -30 58 -30 126 0 68 3 82 30 126
79 127 291 240 555 294 98 21 308 39 375 33 17 -1 73 -4 125 -7z m2520 -1034
c3 -3 -38 -2 -90 1 -52 3 -155 2 -229 -4 -525 -37 -926 -267 -980 -563 -7 -36
-11 -212 -11 -448 0 -315 3 -394 14 -416 9 -17 53 -51 118 -90 216 -128 435
-208 703 -258 81 -15 147 -19 345 -19 227 1 254 3 373 28 154 33 296 81 431
145 109 52 232 128 256 157 12 14 16 76 23 319 11 430 3 580 -39 680 -5 13
236 -103 775 -375 l782 -394 -173 -7 c-238 -9 -363 -29 -533 -85 -280 -92
-467 -240 -531 -421 -23 -66 -24 -70 -23 -492 0 -321 3 -429 12 -441 21 -28
154 -109 270 -164 489 -234 1022 -269 1517 -98 161 56 414 194 438 240 13 25
22 256 23 583 1 223 -2 286 -15 333 -9 32 -16 60 -16 63 0 2 325 -159 723
-358 l722 -363 -75 -2 c-351 -11 -640 -90 -852 -235 -129 -87 -225 -220 -247
-342 -7 -36 -11 -210 -11 -443 0 -317 3 -389 15 -412 28 -56 305 -203 515
-274 547 -187 1197 -115 1640 180 39 25 73 56 79 71 13 32 21 851 8 895 -7 25
26 10 494 -224 421 -210 500 -253 488 -264 -8 -7 -882 -601 -1944 -1320 -1061
-719 -1976 -1339 -2032 -1377 l-101 -69 -4876 2432 c-2682 1338 -4875 2436
-4874 2440 2 6 603 423 893 619 l70 47 -3 -433 c-2 -293 0 -440 8 -453 22 -42
225 -159 396 -229 508 -208 1113 -195 1581 34 102 50 229 130 253 159 12 14
16 80 22 354 9 376 4 509 -22 593 -77 249 -411 446 -854 504 -136 18 -455 15
-559 -6 -33 -6 -61 -10 -63 -7 -4 3 1388 966 1393 963 1 -1 -5 -24 -13 -51
-13 -42 -15 -117 -14 -473 1 -285 5 -430 12 -441 13 -21 147 -106 243 -154
618 -306 1367 -279 1905 69 43 27 75 56 82 72 6 17 11 184 12 462 1 423 0 436
-20 485 -12 28 -25 58 -29 68 -5 13 265 -119 791 -384 439 -221 801 -404 804
-407z m-3425 105 c306 -152 744 -199 1140 -121 184 37 391 121 503 206 l55 41
-5 -182 c-6 -210 8 -184 -138 -260 -499 -258 -1161 -235 -1676 60 l-74 43 0
167 0 168 63 -43 c34 -24 94 -59 132 -79z m3416 -298 c288 -29 548 -125 676
-251 87 -85 117 -191 79 -282 -48 -116 -241 -244 -460 -306 -191 -53 -449 -73
-658 -50 -497 54 -833 300 -725 532 113 244 608 406 1088 357z m-4443 -209
c276 -56 504 -186 571 -324 28 -56 28 -136 0 -192 -87 -182 -427 -332 -796
-352 -405 -23 -764 69 -952 244 -108 100 -136 199 -85 302 92 184 423 331 794
350 163 9 340 -1 468 -28z m3547 -731 c468 -220 1189 -189 1577 68 40 26 78
51 85 56 14 9 5 -342 -10 -361 -17 -21 -268 -139 -352 -165 -473 -146 -996
-92 -1422 146 l-93 52 0 167 0 166 68 -45 c37 -25 103 -63 147 -84z m-2955
-234 l-5 -180 -60 -37 c-152 -94 -396 -174 -618 -203 -369 -48 -758 27 -1096
210 l-96 53 -3 167 c-1 92 1 165 5 163 5 -1 42 -25 83 -53 131 -86 309 -152
521 -191 117 -22 419 -30 549 -15 269 31 510 114 673 231 28 21 52 37 52 37 0
-1 -2 -83 -5 -182z m6515 -90 c273 -51 512 -176 591 -310 39 -67 43 -139 12
-206 -133 -284 -754 -442 -1285 -328 -265 57 -482 181 -547 311 -54 107 -28
206 78 306 127 118 321 198 580 237 122 19 448 13 571 -10z m-4764 -2536
c2692 -1343 4897 -2444 4900 -2448 5 -6 -11 -2523 -16 -2529 -2 -2 -2204 1089
-4894 2425 l-4891 2427 0 1283 c0 706 2 1283 3 1283 2 0 2206 -1098 4898
-2441z m3563 1704 c346 -249 1013 -310 1498 -137 88 32 209 93 275 140 l48 34
3 -172 3 -173 -28 -23 c-45 -37 -240 -128 -343 -160 -202 -64 -378 -87 -600
-79 -285 10 -521 71 -772 199 -159 81 -148 62 -148 249 0 87 3 159 6 159 4 0
30 -17 58 -37z m3724 -381 c367 -80 595 -242 595 -422 0 -194 -272 -372 -668
-436 -136 -22 -406 -21 -545 1 -343 56 -607 205 -656 372 -19 65 -13 108 24
177 78 143 333 271 638 321 133 21 488 14 612 -13z m-1183 -858 c122 -77 306
-143 506 -180 113 -21 430 -30 555 -15 268 32 522 120 673 233 l53 40 -7 -183
c-6 -152 -10 -186 -24 -196 -37 -29 -212 -113 -296 -143 -462 -162 -965 -126
-1419 104 l-141 71 -3 174 -2 175 22 -21 c13 -11 50 -38 83 -59z m3064 -1410
c-11 -714 -24 -1302 -27 -1306 -12 -11 -4065 -2708 -4067 -2705 -1 1 3 571 8
1267 7 917 12 1268 21 1277 14 16 4080 2772 4084 2768 1 -1 -7 -587 -19 -1301z"/>
<path d="M4673 7789 c-438 -42 -782 -217 -901 -457 l-37 -76 -3 -439 c-2 -368
0 -443 11 -461 18 -28 175 -123 287 -174 306 -141 586 -198 920 -189 244 7
386 32 600 109 175 62 401 191 419 238 21 56 32 792 12 886 -32 160 -162 305
-366 409 -249 127 -612 186 -942 154z m375 -190 c265 -29 484 -108 624 -224
117 -96 154 -211 104 -316 -82 -173 -373 -310 -741 -350 -130 -14 -352 -7
-475 15 -376 67 -640 245 -640 431 0 281 571 506 1128 444z m-1080 -845 c60
-46 224 -125 327 -159 207 -66 480 -96 708 -77 306 26 546 100 730 226 l67 46
0 -175 0 -174 -32 -24 c-98 -74 -331 -166 -528 -209 -93 -20 -133 -22 -345
-22 -223 0 -249 1 -366 26 -199 43 -414 125 -560 213 l-59 36 0 165 c0 90 3
164 6 164 3 0 26 -16 52 -36z"/>
<path d="M7180 6563 c-255 -25 -481 -92 -652 -194 -107 -63 -211 -167 -253
-253 -19 -39 -40 -96 -45 -128 -7 -34 -10 -212 -8 -453 l3 -397 33 -28 c49
-41 235 -143 342 -188 598 -250 1261 -207 1778 115 40 25 79 57 86 72 10 20
15 115 21 386 8 426 1 518 -46 613 -136 277 -583 465 -1094 460 -71 -1 -146
-3 -165 -5z m515 -213 c286 -61 505 -183 576 -323 85 -164 -66 -355 -362 -461
-367 -131 -831 -122 -1169 23 -218 94 -345 236 -326 365 26 172 274 334 603
395 155 29 158 29 378 26 156 -3 222 -8 300 -25z m600 -969 l-8 -181 -76 -43
c-233 -131 -463 -193 -756 -203 -341 -12 -663 64 -950 223 l-90 50 -3 167 c-1
91 0 166 2 166 3 0 33 -20 68 -44 411 -285 1216 -307 1675 -44 40 23 88 54
106 69 17 15 34 26 36 24 1 -2 0 -85 -4 -184z"/>
<path d="M9730 5319 c-491 -30 -892 -248 -974 -528 -23 -80 -24 -875 -1 -908
20 -29 160 -113 291 -174 449 -212 988 -250 1449 -102 194 62 469 208 490 260
11 29 24 725 15 821 -14 138 -43 204 -140 306 -215 227 -656 355 -1130 325z
m301 -189 c341 -33 623 -154 732 -312 31 -45 40 -67 44 -116 5 -53 2 -69 -21
-116 -72 -148 -307 -276 -610 -333 -116 -22 -473 -25 -586 -5 -317 56 -562
186 -636 338 -22 45 -26 64 -22 113 19 269 566 483 1099 431z m-891 -939 c188
-89 395 -137 645 -147 377 -16 758 77 973 237 l52 40 0 -180 0 -179 -48 -31
c-69 -44 -224 -115 -317 -144 -444 -139 -936 -100 -1360 110 -38 19 -89 47
-112 62 l-43 26 0 168 0 168 53 -40 c29 -22 100 -63 157 -90z"/>
</g>
</svg>
